<svg width="40" height="40" viewBox="0 0 40 40" fill="none" xmlns="http://www.w3.org/2000/svg">
<path d="M27 18C28.6569 18 30 16.6569 30 15C30 13.3431 28.6569 12 27 12C25.3431 12 24 13.3431 24 15C24 16.6569 25.3431 18 27 18Z" fill="black"/>
<path d="M13 18C14.6569 18 16 16.6569 16 15C16 13.3431 14.6569 12 13 12C11.3431 12 10 13.3431 10 15C10 16.6569 11.3431 18 13 18Z" fill="black"/>
<path d="M19.98 0C8.94 0 0 8.96 0 20C0 31.04 8.94 40 19.98 40C31.04 40 40 31.04 40 20C40 8.96 31.04 0 19.98 0ZM20 36C11.16 36 4 28.84 4 20C4 11.16 11.16 4 20 4C28.84 4 36 11.16 36 20C36 28.84 28.84 36 20 36ZM20 31C24.66 31 28.64 28.1 30.24 24H26.9C25.52 26.38 22.96 28 20 28C17.04 28 14.5 26.38 13.1 24H9.76C11.36 28.1 15.34 31 20 31Z" fill="black"/>
</svg>
